<?xml version="1.0" encoding="utf-8"?>
<!-- Generator: Adobe Illustrator 15.0.0, SVG Export Plug-In . SVG Version: 6.00 Build 0)  -->
<!DOCTYPE svg PUBLIC "-//W3C//DTD SVG 1.1//EN" "http://www.w3.org/Graphics/SVG/1.1/DTD/svg11.dtd" [
	<!ENTITY ns_flows "http://ns.adobe.com/Flows/1.0/">
	<!ENTITY ns_extend "http://ns.adobe.com/Extensibility/1.0/">
	<!ENTITY ns_ai "http://ns.adobe.com/AdobeIllustrator/10.0/">
	<!ENTITY ns_graphs "http://ns.adobe.com/Graphs/1.0/">
	<!ENTITY ns_vars "http://ns.adobe.com/Variables/1.0/">
	<!ENTITY ns_imrep "http://ns.adobe.com/ImageReplacement/1.0/">
	<!ENTITY ns_sfw "http://ns.adobe.com/SaveForWeb/1.0/">
	<!ENTITY ns_custom "http://ns.adobe.com/GenericCustomNamespace/1.0/">
	<!ENTITY ns_adobe_xpath "http://ns.adobe.com/XPath/1.0/">
]>
<svg version="1.1" xmlns:x="&ns_extend;" xmlns:i="&ns_ai;" xmlns:graph="&ns_graphs;"
	 xmlns="http://www.w3.org/2000/svg" xmlns:xlink="http://www.w3.org/1999/xlink" xmlns:a="http://ns.adobe.com/AdobeSVGViewerExtensions/3.0/"
	 x="0px" y="0px" width="112.646px" height="27.973px" viewBox="0 0 112.646 27.973" enable-background="new 0 0 112.646 27.973"
	 xml:space="preserve">
<metadata>
	<sfw  xmlns="&ns_sfw;">
		<slices></slices>
		<sliceSourceBounds  x="-59.061" y="-34.291" height="62.322" width="150.869" bottomLeftOrigin="true"></sliceSourceBounds>
	</sfw>
</metadata>
<g id="Layer_1" display="none">
</g>
<g id="Layer_2">
	<g>
		<path d="M4.498,20.057l-0.126-7.147h0.506L4.776,8.767l1.541-0.024v-0.28l0.329-0.05l0.101-0.327h2.071v0.454L9.242,8.5
			l0.03,0.391l1.339-0.049v0.251l2.097-0.023v4.646l0.202-0.024v1.264l0.505-0.052v-0.328l0.354,0.076v-0.595h0.202v-0.947
			l0.228-0.556h1.01l-0.025-3.536l0.91-0.025l0.148-1.061l0.862,0.026l0.011-0.23l1.175-0.022l0.026,0.302l0.606,0.025v0.885
			l0.657,0.052v0.226l0.732,0.127v3.057l0.707-0.202v-0.277l0.657-0.076v-0.403l1.188-0.33v0.606v0.379l0.505-0.025v0.531
			l2.045,0.026v0.326l0.379-0.023c0,0,0.151-0.102,0.252-0.102c0.101,0,0-4.622,0-4.622l0.202-0.76V6.744h0.859l0.126,0.506
			l0.379,0.127v0.202v0.276h0.252v0.431l0.152-0.025v2.98l0.833-0.025V8.361l-0.252-0.379l1.036-1.062l0.505-0.506h0.581V5.936
			h0.227v-0.58h0.303V4.598l0.176-0.013V4.181h0.126V3.714h0.177l0.126-2.375l0.102,2.387L32.094,3.7l-0.013,0.442l0.153,0.012
			l0.036,0.443l0.126,0.025l0.012,0.656l0.366,0.063l0.038,0.543l0.126,0.026v0.353l0.151-0.025l-0.013,0.998l0.526,0.594
			l0.067,3.131l0.224-0.019l-0.009,0.476l0.896-0.015l0.029,0.274l0.375,0.006v0.896l0.304,0.026l0.038,1.312l0.618,0.052
			l-0.088-1.314l0.542-0.025V7.426l0.91-1.313l0.14-1.188l0.187-1.7l0.229,1.701l0.102,1.212l0.858,1.137l0.151,3.411h0.455
			l0.037,0.479l1.352,0.037l0.025-6.34l1.92-0.239l3.953,0.467l-0.013,5.975l0.556,0.001l0.165,0.253h0.314l0.051-2.982l3.108-0.05
			v0.365l0.656-0.038v0.229l0.809,0.025v0.226l0.303-0.023v2.271l1.467-0.022v2.373l0.25-0.024v0.251l0.758-0.024l-0.201-6.265
			l3.031-0.252l1.768,0.454l0.027,4.937l4.57,0.04v1.01l1.023-0.024l0.012-0.253l0.746,0.025v-3.334h2.514V7.616l0.213-0.012
			l-0.074-7.252L70.831,0h1.818v5.734h0.201v1.643l0.379,0.049l0.076,8.45l0.254-0.014l0.1,0.229l0.188-0.038l0.014-0.19h0.24
			v-0.341h0.254l0.006-0.188l0.271,0.012l-0.064-0.87l0.266-0.014l-0.012-0.668l0.229-0.025l-0.064-2.654l0.139-0.012l0.006-0.543
			l0.133,0.014l-0.09-6.354h0.785V3.865h1.564v0.176l0.783-0.024V3.764h0.43V2.399h3.133v0.48l1.641,0.008v0.661l0.861,0.013
			l-0.025,0.493l0.77,0.012l0.088,5.532h1.844v1.188l0.859,0.025l0.055,4.505l1.107,0.021l0.012,0.463l0.189-0.014v0.254
			l0.279,0.012l-0.053-0.518l0.658-0.014l0.014,0.291h0.277l-0.139-3.105l0.252-0.304l0.039-0.366l0.996-0.24l0.682,0.252v-0.506
			l2.199-0.15l0.15-2.046l0.328-0.025V8.488l0.252-0.178V6.871l0.229-0.025v-0.81h0.178V5.153l0.152-0.101v0.96l0.148,0.1v0.684
			l0.355-0.077v1.467l0.254,0.049v0.835l0.277,0.102v0.453l0.254,0.05v0.633l0.199,0.176v0.479v0.279l3.311-0.05l1.615,0.935
			c0,0-0.404,3.282-0.305,3.309c0.102,0.025,0.254,0.05,0.305,0.025c0.051-0.025,0-0.909,0-0.909l0.303-0.025V14.02l0.305,0.075
			v0.38l0.656,0.126v1.44l0.279,0.125v-1.11l0.176-0.228v-0.454l0.277,0.101l0.176-0.961v-1.818l0.152-0.254v-0.782l0.379-0.151
			v-0.493h0.404V9.549l0.529-0.051V8.942l0.305,0.102V8.361h0.125l1.389-2.299V5.128l0.609-0.102v0.935l1.564,2.273l0.354,0.076
			v1.895l0.303,0.127l0.203,5.328l1.01,0.026c0,0-0.1-5.911,0-5.936c0.102-0.025,0.973-0.077,0.973-0.077v18.299H0.034v-7.917H4.498
			z"/>
		<polygon fill="none" stroke="#000000" stroke-width="0.2018" stroke-miterlimit="10" points="6,20.547 6.088,15.913 0.101,17.614 
			0.101,20.547 		"/>
	</g>
</g>
<g id="Layer_3">
</g>
</svg>
